<svg version="1.2" xmlns="http://www.w3.org/2000/svg" viewBox="0 0 216 191" width="216" height="191">
	<title>warning2</title>
	<defs>
		<filter x="-50%" y="-50%" width="200%" height="200%" id="f1"> <feGaussianBlur stdDeviation="3.4"/> </filter>
		<filter x="-50%" y="-50%" width="200%" height="200%" id="f2"> <feGaussianBlur stdDeviation="2.4"/> </filter>
	</defs>
	<style>
		.s0 { opacity: .86;filter: url(#f1);fill: #e10201 } 
		.s1 { fill: #e10201 } 
		.s2 { filter: url(#f2);fill: none;stroke: #000000 } 
		.s3 { filter: url(#f2);fill: #000000 } 
		.s4 { fill: #000000 } 
	</style>
	<g id="Folder 1">
		<g>
			<path class="s0" d="m95 22.5c5.8-10 20.2-10 26 0l75.3 130.5c5.8 10-1.4 22.5-13 22.5h-150.6c-11.6 0-18.8-12.5-13-22.5z"/>
		</g>
		<path class="s1" d="m95 22.5c5.8-10 20.2-10 26 0l75.3 130.5c5.8 10-1.4 22.5-13 22.5h-150.6c-11.6 0-18.8-12.5-13-22.5z"/>
		<g>
			<path class="s2" d="m95.4 22.8c5.6-9.7 19.6-9.7 25.2-0.1l75.3 130.6c5.6 9.6-1.4 21.7-12.6 21.7h-150.6c-11.2 0-18.2-12.1-12.6-21.7z"/>
		</g>
		<g>
			<path fill-rule="evenodd" class="s3" d="m108 164c-6.6 0-12-5.4-12-12 0-6.6 5.4-12 12-12 6.6 0 12 5.4 12 12 0 6.6-5.4 12-12 12z"/>
		</g>
		<path fill-rule="evenodd" class="s4" d="m108 164c-6.6 0-12-5.4-12-12 0-6.6 5.4-12 12-12 6.6 0 12 5.4 12 12 0 6.6-5.4 12-12 12z"/>
		<g>
			<path class="s3" d="m120 68.5c0 23.2-5.4 59.5-12 59.5-6.6 0-12-36.3-12-59.5 0-23.2 5.4-24.5 12-24.5 6.6 0 12 1.3 12 24.5z"/>
		</g>
		<path class="s4" d="m120 68.5c0 23.2-5.4 59.5-12 59.5-6.6 0-12-36.3-12-59.5 0-23.2 5.4-24.5 12-24.5 6.6 0 12 1.3 12 24.5z"/>
	</g>
</svg>