<svg version="1.2" xmlns="http://www.w3.org/2000/svg" viewBox="0 0 705 398" width="705" height="398">
	<title>worlaholic</title>
	<style>
		.s0 { fill: #050505;stroke: #050505;stroke-miterlimit:10 } 
		.s1 { fill: #050505 } 
	</style>
	<g id="Layer 1">
		<g id="&lt;Group&gt;">
			<path id="&lt;Path&gt;" class="s0" d="m241.9 82.7c-12.5 3.5-18.8 23.3-21.3 33.5q0 0-0.1 0.1c-0.4 2-0.8 3.6-1 4.7q0 0 0 0.1c-7.6 34.4-27 119-6.1 236.3-16.9-52.5-51.1-152.4-91.5-232.4-17.8 53.7-43.3 115.4-27.4 226-72.8-223.9-72.2-276.2-94.4-271.6 23-21.6 47.6-54.9 59.8-73.2-14.9 41.1-28.7 68 19.5 195.3 31.5-60.3 32.3-117.5 17.5-142 15.2 6.1 41.6-3.8 56.9-14.9-17.3 31.3-13.8 84.7 25.1 149.3 12.4-28.3 35.9-90.4 6.2-182.9 23 37.7 45.6 65.2 56.8 71.7z"/>
			<path id="&lt;Compound Path&gt;" fill-rule="evenodd" class="s1" d="m324.2 398c-13.3-44.5-50.2-153.4-93.9-168 55.2-32.7 53.3-183.3 18.3-213 13.9 8.3 45.2 24.7 68.4 19.8-2.3 26.3 49.7 106.9 69.3 124.3-28.1 22.2-75.2 163.1-62.1 236.9zm41.1-237.8c-13.9-5.9-29.5-23.8-41.9-40.9 10.9 26.9 9.5 47.1 7.2 58-2-27.9-14-43.8-27.8-52.9-10.5 52.5-38 97.8-44 107.2 14.8 9.4 27.4 24.2 36.4 36.7-16-34.1-0.2-54.5 6.7-61.2-3.1 14.1-5.6 43.2 13.3 52.7 14.5-45.3 35.3-75.7 50.1-99.6z"/>
			<path id="&lt;Compound Path&gt;" fill-rule="evenodd" class="s1" d="m553.4 364.7c-28.5-48.6-50.7-45.6-82.6-39 15.6-12.2 12.3-31.3-11.5-91.2-7-17.4-17.1-40.2-29.5-64.6-32.4 66.3-59.8 141.1-56.2 220-15.3-60.4-0.2-164.6 40.3-249.7-27.8-49.5-63.2-99.1-99-118.9 67.6 12.8 132.8 18.7 211.1 3.2-48.9 43.6-91.1 99.9-63.4 166.1q0 0.1 0.1 0.2c4.2 8.8 45.4 94.7 90.7 173.9zm-122.3-256.8c15.4-25.9 33.5-49 54-66.9-16.7 2.5-60.9 5.3-104.5 2.2 21.9 25.5 41.8 52.6 50.5 64.7z"/>
			<path id="&lt;Path&gt;" class="s1" d="m665.4 111.9c1.1-7.5 2.9-21.2 3.3-34.4-12 14.5-40.4 38.5-69.5 58.5 12.8 19.6 22.7 31.9 39.8 7.9-9.4 37.1-25.6 64.3-29.2 96.4-7.8-73.1-28.1-84.5-44.5-83.3-4.7 2.6-9.2 4.8-13.5 6.7 4.3 45.5 65.4 120.2 39.9 204.8-0.1-93.4-54.1-185.4-119.9-217.9 38.5-11.3 120.9-124.5 83.3-131.9 41.4-6.8 70.5-15 82.5-18.7-51.7 39.9-68.1 71.4-89.4 137.6 69.1-44.6 137-107.3 156.9-136.9-10.4 55.4-32.9 100.3-39.7 111.2z"/>
		</g>
	</g>
</svg>